<svg width="1462" height="1461" xmlns="http://www.w3.org/2000/svg" xmlns:xlink="http://www.w3.org/1999/xlink" xml:space="preserve" overflow="hidden"><defs><clipPath id="clip0"><rect x="1469" y="507" width="1462" height="1461"/></clipPath></defs><g clip-path="url(#clip0)" transform="translate(-1469 -507)"><path d="M1469 750.505C1469 616.021 1578.02 507 1712.51 507L2687.5 507C2821.98 507 2931 616.021 2931 750.505L2931 1724.49C2931 1858.98 2821.98 1968 2687.5 1968L1712.51 1968C1578.02 1968 1469 1858.98 1469 1724.49Z" fill-rule="evenodd"/><path d="M1595 757.104C1595 688.563 1650.56 633 1719.1 633L2680.9 633C2749.44 633 2805 688.563 2805 757.104L2805 1717.9C2805 1786.44 2749.44 1842 2680.9 1842L1719.1 1842C1650.56 1842 1595 1786.44 1595 1717.9Z" fill="#FFFFFF" fill-rule="evenodd"/><path d="M1552.71 670.665C1580.53 644.349 1624.41 645.565 1650.72 673.381L2248.27 1304.99C2274.59 1332.81 2273.37 1376.69 2245.56 1403.01L2245.56 1403.01C2217.74 1429.32 2173.86 1428.11 2147.55 1400.29L1549.99 768.678C1523.68 740.863 1524.9 696.981 1552.71 670.665Z" fill-rule="evenodd"/><path d="M0 66.9618C-1.66119e-14 29.9798 29.9797-1.66119e-14 66.9615-1.66119e-14L976.879 0C1013.86-1.66119e-14 1043.84 29.9798 1043.84 66.9618L1043.84 66.9618C1043.84 103.944 1013.86 133.924 976.879 133.924L66.9615 133.924C29.9797 133.924-8.30593e-15 103.944-8.30593e-15 66.9618Z" fill-rule="evenodd" transform="matrix(-0.687248 0.726423 0.726423 0.687248 2821.38 600.347)"/><path d="M2311.79 1223.52C2332.38 1204.04 2364.86 1204.94 2384.34 1225.53L2876.29 1745.52C2895.77 1766.11 2894.87 1798.59 2874.28 1818.07L2874.28 1818.07C2853.69 1837.55 2821.21 1836.65 2801.73 1816.06L2309.78 1296.07C2290.3 1275.48 2291.2 1243 2311.79 1223.52Z" fill-rule="evenodd"/><path d="M0 51.3207C-6.5126e-15 22.9771 22.977-1.30252e-14 51.3206-1.30252e-14L767.145 0C795.489-1.30252e-14 818.466 22.9771 818.466 51.3207L818.466 51.3207C818.466 79.6643 795.489 102.641 767.145 102.641L51.3206 102.641C22.977 102.641-1.30252e-14 79.6643-1.30252e-14 51.3207Z" fill-rule="evenodd" transform="matrix(-0.687248 0.726423 0.726423 0.687248 2031.39 1209.56)"/></g></svg>