<svg width="1634" height="1633" xmlns="http://www.w3.org/2000/svg" xmlns:xlink="http://www.w3.org/1999/xlink" xml:space="preserve" overflow="hidden"><defs><clipPath id="clip0"><rect x="1383" y="421" width="1634" height="1633"/></clipPath><clipPath id="clip1"><rect x="1593" y="632" width="1214" height="1211"/></clipPath><clipPath id="clip2"><rect x="1593" y="632" width="1214" height="1211"/></clipPath><clipPath id="clip3"><rect x="1593" y="632" width="1214" height="1211"/></clipPath></defs><g clip-path="url(#clip0)" transform="translate(-1383 -421)"><path d="M1383 1237.5C1383 786.56 1748.78 421 2200 421 2651.22 421 3017 786.56 3017 1237.5 3017 1688.44 2651.22 2054 2200 2054 1748.78 2054 1383 1688.44 1383 1237.5ZM1462.22 1237.5C1462.22 1644.69 1792.53 1974.78 2200 1974.78 2607.47 1974.78 2937.78 1644.69 2937.78 1237.5 2937.78 830.309 2607.47 500.216 2200 500.216 1792.53 500.216 1462.22 830.309 1462.22 1237.5Z" fill-rule="evenodd"/><g clip-path="url(#clip1)"><g clip-path="url(#clip2)"><g clip-path="url(#clip3)"><path d="M494.492 368.346C504.583 358.254 510.891 344.378 510.891 329.241 510.891 314.103 504.583 300.227 494.492 290.135L320.41 117.316C310.319 107.224 296.443 100.917 282.567 100.917 268.691 100.917 253.553 107.224 243.461 117.316L224.54 136.237 475.57 387.268 494.492 368.346Z" transform="matrix(1.00083 0 0 1 1594 632)"/><path d="M748.045 813.64C742.999 818.686 735.43 821.209 729.123 821.209 722.815 821.209 715.247 818.686 710.201 813.64L397.359 502.06C392.313 497.014 389.791 489.446 389.791 483.138 389.791 476.831 392.313 469.262 397.359 464.217L436.464 426.373 185.434 175.343C169.035 191.742 153.898 206.879 143.806 216.971 118.577 240.938 103.44 272.475 102.178 306.534 98.3937 363.3 112.27 417.543 131.192 470.524 151.375 517.198 177.866 561.349 206.879 602.977 310.319 758.136 440.249 893.112 591.624 1000.34 616.853 1019.26 643.344 1035.66 671.096 1050.79 734.169 1082.33 801.026 1105.04 872.929 1110.08 920.864 1113.87 968.8 1094.95 1001.6 1059.62L1035.66 1025.57 785.888 774.535 748.045 813.64Z" transform="matrix(1.00083 0 0 1 1594 632)"/><path d="M1093.68 890.589 919.603 716.508C909.511 706.417 895.635 700.109 880.498 700.109 865.36 700.109 851.484 706.417 841.392 716.508L822.471 736.692 1073.5 987.722 1092.42 968.8C1102.51 958.708 1108.82 944.832 1108.82 929.695 1108.82 914.557 1103.78 900.681 1093.68 890.589Z" transform="matrix(1.00083 0 0 1 1594 632)"/></g></g></g></g></svg>