<svg width="1634" height="1633" xmlns="http://www.w3.org/2000/svg" xmlns:xlink="http://www.w3.org/1999/xlink" xml:space="preserve" overflow="hidden"><defs><clipPath id="clip0"><rect x="1383" y="421" width="1634" height="1633"/></clipPath></defs><g clip-path="url(#clip0)" transform="translate(-1383 -421)"><path d="M1383 1237.5C1383 786.56 1748.78 421 2200 421 2651.22 421 3017 786.56 3017 1237.5 3017 1688.44 2651.22 2054 2200 2054 1748.78 2054 1383 1688.44 1383 1237.5ZM1462.22 1237.5C1462.22 1644.69 1792.53 1974.78 2200 1974.78 2607.47 1974.78 2937.78 1644.69 2937.78 1237.5 2937.78 830.309 2607.47 500.216 2200 500.216 1792.53 500.216 1462.22 830.309 1462.22 1237.5Z" fill-rule="evenodd"/><rect x="1522" y="828" width="1374" height="101"/><rect x="1522" y="1546" width="1374" height="101"/><rect x="2149" y="473" width="114" height="1581"/><path d="M2045.19 2024.09C1968.27 1887 1767.94 1705.56 1761.13 1229.04 1754.61 772.562 1991 583.469 2065.05 473.694 2106.12 478.811 2136.39 410.817 2148.64 511.727 2160.9 612.636 1853.47 718.62 1852.67 1229.49 1853.71 1760.53 2128.26 1906.01 2110.87 2025.92 2073.09 2026.53 2082.97 2023.47 2045.19 2024.09Z" fill-rule="evenodd"/><path d="M2045.19 2024.09C1968.27 1887 1767.94 1705.56 1761.13 1229.04 1754.61 772.562 1991 583.469 2065.05 473.694 2106.12 478.811 2136.39 410.817 2148.64 511.727 2160.9 612.636 1853.47 718.62 1852.67 1229.49 1853.71 1760.53 2128.26 1906.01 2110.87 2025.92 2073.09 2026.53 2082.97 2023.47 2045.19 2024.09Z" fill-rule="evenodd"/><path d="M1.91299 284.193C138.916 207.271 320.235 6.93737 796.451 0.132037 1252.64-6.38721 1441.61 229.998 1551.32 304.051 1546.2 345.118 1614.15 375.392 1513.31 387.644 1412.46 399.896 1306.55 92.4694 796.003 91.6714 265.304 92.706 119.909 367.263 0.0811505 349.869-0.529823 312.094 2.52396 321.967 1.91299 284.193Z" fill-rule="evenodd" transform="matrix(-6.12323e-17 -1 -1 6.12323e-17 2640 2022)"/></g></svg>